<?xml version="1.0" standalone="no"?>
<!DOCTYPE svg PUBLIC "-//W3C//DTD SVG 20010904//EN"
 "http://www.w3.org/TR/2001/REC-SVG-20010904/DTD/svg10.dtd">
<svg version="1.0" xmlns="http://www.w3.org/2000/svg"
 width="225.000000pt" height="225.000000pt" viewBox="0 0 225.000000 225.000000"
 preserveAspectRatio="xMidYMid meet">
<metadata>
Created by potrace 1.14, written by Peter Selinger 2001-2017
</metadata>
<g transform="translate(0.000000,225.000000) scale(0.100000,-0.100000)"
fill="#000000" stroke="none">
<path d="M1046 1933 c-3 -4 -118 -7 -254 -8 -175 -1 -262 -5 -299 -15 -29 -8
-54 -16 -54 -19 -1 -3 -3 -30 -4 -59 -1 -43 -6 -58 -28 -78 -14 -13 -29 -24
-32 -24 -16 0 -50 -44 -52 -68 -2 -28 -3 -107 -2 -132 0 -8 0 -31 0 -50 -1
-19 -1 -82 -1 -140 1 -58 1 -125 0 -150 0 -25 1 -78 3 -118 1 -39 0 -72 -3
-72 -6 0 -2 -159 4 -177 3 -7 1 -15 -4 -18 -5 -3 -6 -15 -1 -28 5 -12 5 -34 1
-49 -5 -14 -6 -29 -3 -31 7 -7 8 -106 1 -112 -3 -3 -2 -21 2 -39 4 -19 4 -40
-1 -47 -4 -7 -5 -17 -3 -21 3 -5 6 -31 7 -59 0 -32 6 -53 14 -56 7 -3 11 -9 8
-13 -6 -10 51 -24 65 -15 5 3 10 3 10 -2 0 -4 328 -8 730 -8 718 0 730 1 750
21 11 11 24 33 28 49 6 23 9 1234 3 1290 -1 6 -26 26 -56 45 -50 32 -54 38
-56 75 -1 22 -1 46 0 53 1 7 -5 19 -13 28 -32 31 -98 41 -279 40 -97 -1 -177
3 -177 7 0 5 -6 5 -12 1 -16 -10 -248 -12 -269 -2 -9 4 -19 4 -23 1z"/>
</g>
</svg>
